<?xml version="1.0" encoding="UTF-8" standalone="no"?>
<!-- Created with Inkscape (http://www.inkscape.org/) -->

<svg
   width="180.60013mm"
   height="127.2258mm"
   viewBox="0 0 180.60013 127.2258"
   version="1.1"
   id="svg1"
   inkscape:version="1.3 (0e150ed6c4, 2023-07-21)"
   sodipodi:docname="logo.svg"
   xmlns:inkscape="http://www.inkscape.org/namespaces/inkscape"
   xmlns:sodipodi="http://sodipodi.sourceforge.net/DTD/sodipodi-0.dtd"
   xmlns="http://www.w3.org/2000/svg"
   xmlns:svg="http://www.w3.org/2000/svg">
  <sodipodi:namedview
     id="namedview1"
     pagecolor="#ffffff"
     bordercolor="#999999"
     borderopacity="1"
     inkscape:showpageshadow="0"
     inkscape:pageopacity="0"
     inkscape:pagecheckerboard="0"
     inkscape:deskcolor="#d1d1d1"
     inkscape:document-units="mm"
     inkscape:zoom="0.85257964"
     inkscape:cx="290.88192"
     inkscape:cy="587.04193"
     inkscape:window-width="1904"
     inkscape:window-height="1026"
     inkscape:window-x="0"
     inkscape:window-y="0"
     inkscape:window-maximized="1"
     inkscape:current-layer="layer1"
     showgrid="false" />
  <defs
     id="defs1" />
  <g
     inkscape:label="Layer 1"
     inkscape:groupmode="layer"
     id="layer1"
     transform="translate(-15.113713,-65.758534)">
    <path
       style="font-size:9.87583px;line-height:1.25;font-family:'Comic Mono';-inkscape-font-specification:'Comic Mono';fill:#ffffff;stroke-width:1.13374"
       d="m 22.217347,191.59916 c -0.02626,0.32513 -0.141891,0.5839 -0.34682,0.77632 -0.204939,0.18579 -0.433523,0.27869 -0.685754,0.27869 h -0.02366 -0.02365 c -0.231213,0 -0.428269,-0.0929 -0.591168,-0.27869 -0.162903,-0.18577 -0.244348,-0.44123 -0.244348,-0.76636 0,-0.0399 0.0026,-0.0896 0.0079,-0.14933 0.01561,-0.21898 0.02366,-0.55737 0.02366,-1.0152 0,-0.007 -0.03416,-1.76827 -0.102473,-5.28499 -0.06305,-3.5167 -0.09459,-5.28169 -0.09459,-5.29495 l 0.118233,0.15925 c -1.403039,-0.0863 -4.795314,4.68859 -5.02127,4.64213 -0.625325,-0.11938 1.639788,-5.27248 1.639788,-5.77677 v -0.0198 -0.03 c 0,-0.25876 0.06831,-0.491 0.204941,-0.69669 0.136637,-0.2057 0.328426,-0.30854 0.575402,-0.30854 0.0578,0 0.118233,0.007 0.18129,0.0198 0.635837,0.13941 2.816588,0.22559 6.54226,0.25876 0.283761,0 0.493953,0.093 0.630579,0.27868 0.141892,0.18579 0.220702,0.41471 0.236467,0.68675 0,0.27869 -0.07094,0.53415 -0.21282,0.76638 -0.141891,0.23224 -0.352075,0.34836 -0.630579,0.34836 h -0.07094 c -0.189176,-0.0198 -0.961636,-0.0564 -2.31738,-0.10947 0.02103,2.77353 0.08932,6.60541 0.204939,11.4956 v 0.009 z m 5.013104,-0.13941 c -0.0578,0.23888 -0.131366,0.43792 -0.220703,0.59718 -0.08932,0.15263 -0.183922,0.25876 -0.283762,0.31849 -0.09459,0.0597 -0.170783,0.0962 -0.228584,0.10947 -0.05255,0.0198 -0.107709,0.03 -0.165531,0.03 -0.115588,0 -0.225958,-0.03 -0.331055,-0.0896 C 25.680273,192.24621 25.52,191.88783 25.52,191.35038 c 0,-0.16586 0.02101,-0.37158 0.06305,-0.61709 0.07882,-0.4512 0.380971,-1.45975 0.906458,-3.02568 -0.178663,-0.17909 -0.267996,-0.38817 -0.267996,-0.62704 v -0.0198 -0.009 c 0,-0.19905 0.07358,-0.39147 0.220703,-0.57726 0.152397,-0.19242 0.349444,-0.34171 0.591166,-0.44788 1.313707,-3.78873 2.327891,-6.31345 3.042545,-7.57417 0.162903,-0.2853 0.312662,-0.49432 0.449288,-0.62703 0.141873,-0.13941 0.302152,-0.20901 0.480817,-0.20901 h 0.0473 c 0.02626,-0.007 0.0473,-0.009 0.06305,-0.009 0.215449,0 0.404622,0.0762 0.567522,0.22892 0.168157,0.14602 0.273251,0.37158 0.315289,0.6768 0.220702,1.63227 0.596424,3.96126 1.12716,6.98694 0.535993,3.01904 0.903832,4.75084 1.103515,5.19542 0.09985,0.22559 0.149752,0.4512 0.149752,0.67679 0,0.2455 -0.05518,0.46116 -0.16553,0.64693 -0.105082,0.18579 -0.233838,0.32182 -0.38623,0.40808 -0.105082,0.0597 -0.218071,0.0896 -0.338937,0.0896 -0.189175,0 -0.36784,-0.0863 -0.535995,-0.25876 -0.162903,-0.17247 -0.296896,-0.43462 -0.401992,-0.78629 -0.131367,-0.41803 -0.394112,-1.81475 -0.788224,-4.19018 -1.308453,0.0729 -2.477652,0.20901 -3.507596,0.40808 z m 4.098123,-6.85345 -0.685113,-4.05493 c -0.446661,0.982 -1.037829,2.70718 -1.773504,5.17549 0.951123,-0.13261 1.691413,-1.08738 2.458617,-1.12056 z m 10.6259,7.58997 c -0.746185,0.17908 -1.870719,0.30854 -3.373599,0.38816 -1.497625,0.0797 -2.580118,0.11939 -3.247483,0.11939 -0.231213,0 -0.428268,-0.0962 -0.591166,-0.28865 -0.162904,-0.18577 -0.24435,-0.44123 -0.24435,-0.76635 v -0.13941 c 0.0051,-0.093 0.06829,-0.84933 0.189171,-2.26927 0.120861,-1.41996 0.207569,-2.79014 0.260116,-4.11055 0.01561,-0.38485 0.02365,-0.91568 0.02365,-1.59248 l -0.03941,-4.28969 c 0.01047,-0.40475 0.102418,-0.7133 0.275877,-0.92563 0.178664,-0.21232 0.394114,-0.3185 0.646344,-0.3185 h 0.02365 0.02365 c 0.267996,0 0.486072,0.10287 0.654226,0.30855 0.168157,0.19905 0.252231,0.4877 0.252231,0.86591 0,0.38484 -0.0079,0.90571 -0.02365,1.5626 -0.01561,0.65026 -0.03941,1.49293 -0.07094,2.52805 -0.03154,1.03509 -0.0578,1.90763 -0.07882,2.6176 -0.01561,0.57727 -0.0578,1.37351 -0.126113,2.3887 -0.06305,1.0152 -0.09459,1.79484 -0.09459,2.33892 h 0.02365 c 0.91434,0 1.941659,-0.0696 3.081955,-0.209 1.140299,-0.14603 1.899622,-0.27868 2.27797,-0.39812 0.06831,-0.0198 0.131366,-0.03 0.189171,-0.03 0.162904,0 0.304782,0.0729 0.425642,0.21898 0.12086,0.13941 0.20494,0.29194 0.252234,0.45782 0.05255,0.16586 0.08144,0.32845 0.0867,0.4877 0,0.27204 -0.0578,0.49766 -0.17341,0.6768 -0.115606,0.17908 -0.323171,0.30521 -0.622696,0.37821 z m 8.575876,0.32843 c -0.06305,-0.007 -0.139246,-0.009 -0.228584,-0.009 -0.231212,0 -0.951124,0.0465 -2.159733,0.13941 -1.203356,0.093 -2.115067,0.13941 -2.735137,0.13941 -0.3258,0 -0.599051,-0.009 -0.819753,-0.03 -0.283762,-0.0264 -0.55964,-0.19574 -0.827636,-0.50759 -0.262742,-0.31185 -0.415132,-0.68343 -0.45717,-1.11473 -0.04204,-0.37157 -0.06305,-0.96212 -0.06305,-1.77162 0,-0.31184 0.0026,-0.88247 0.0079,-1.71189 0.01047,-0.83605 0.01561,-1.50621 0.01561,-2.01048 0,-0.96875 -0.01047,-1.8612 -0.03154,-2.67734 -0.01561,-0.44456 -0.02366,-0.8825 -0.02366,-1.31379 0,-0.41802 0.0079,-0.91234 0.02366,-1.48298 0.02101,-0.57063 0.03154,-0.86589 0.03154,-0.8858 0.01047,-0.40475 0.102419,-0.70997 0.275878,-0.91567 0.178663,-0.21233 0.391485,-0.3218 0.638461,-0.32845 h 0.03154 0.03942 c 0.267997,0 0.483443,0.11278 0.646345,0.33841 0.867046,-0.14603 1.920639,-0.21897 3.160777,-0.21897 1.140297,0 2.025735,0.0465 2.656315,0.13941 0.294272,0.0465 0.496581,0.14603 0.606931,0.29859 0.115607,0.15264 0.178663,0.35167 0.189175,0.59717 0,0.36493 -0.07094,0.63035 -0.212819,0.79623 -0.13662,0.15924 -0.304782,0.23887 -0.504466,0.23887 -0.03154,0 -0.06831,-0.004 -0.110353,-0.009 -0.662108,-0.0663 -1.387275,-0.0995 -2.175499,-0.0995 -1.287433,0 -2.417219,0.0762 -3.389364,0.22891 -0.04204,1.38677 -0.0657,2.64415 -0.07094,3.77215 0.777715,-0.0129 1.826053,-0.0663 3.145014,-0.15924 1.324218,-0.0996 2.073029,-0.14933 2.246439,-0.14933 0.514971,0 0.785596,0.30854 0.811871,0.92562 0,0.37821 -0.07882,0.65025 -0.236468,0.81614 -0.152397,0.15924 -0.34419,0.23887 -0.575403,0.23887 -0.204938,0 -1.011555,0.063 -2.419847,0.18909 -1.408294,0.11939 -1.922158,0.57228 -2.327981,0.8294 -0.336291,0.11463 -0.263855,0.32559 -0.326993,0.57433 -0.140399,0.55311 -0.266905,1.10772 -0.261765,1.45275 0.0051,0.34504 0.01561,0.69671 0.03154,1.05501 0.01561,0.3583 0.03942,0.60713 0.07094,0.74646 0.152398,0.0399 0.459796,0.0597 0.922222,0.0597 0.667362,0 1.463467,-0.0332 2.388318,-0.0996 0.930105,-0.0729 1.5239,-0.13941 1.781386,-0.19905 0.12086,-0.0332 0.236466,-0.0498 0.34682,-0.0498 0.162904,0 0.302151,0.0332 0.417756,0.0995 0.12086,0.0663 0.210195,0.15595 0.267999,0.26872 0.06305,0.11278 0.107726,0.22561 0.134011,0.33841 0.02626,0.10617 0.04204,0.21896 0.0473,0.3384 0,0.29195 -0.07358,0.55406 -0.220703,0.78628 -0.147126,0.23224 -0.365212,0.34836 -0.654227,0.34836 -0.03677,0 -0.07094,-0.004 -0.102473,-0.009 z m 1.734093,-1.5626 c -0.115607,-0.27868 -0.17341,-0.53414 -0.17341,-0.76638 0,-0.3981 0.147125,-0.69006 0.441404,-0.87585 0.220702,-0.11939 0.394112,-0.17908 0.520228,-0.17908 0.262742,0 0.509718,0.21896 0.740932,0.65688 0.178663,0.33841 0.428268,0.61378 0.748811,0.82609 0.3258,0.21234 0.696265,0.3185 1.111396,0.3185 0.310035,0 0.633207,-0.0663 0.969516,-0.19905 0.33631,-0.13941 0.651598,-0.32843 0.945869,-0.56731 0.294269,-0.23887 0.535991,-0.54409 0.725165,-0.91567 0.194428,-0.37158 0.291644,-0.76637 0.291644,-1.1844 0,-0.18578 -0.01047,-0.35498 -0.03154,-0.5076 -0.01562,-0.15263 -0.05255,-0.31849 -0.110354,-0.49763 -0.0578,-0.17909 -0.139246,-0.33841 -0.244348,-0.47775 -0.09985,-0.14603 -0.236466,-0.29196 -0.409876,-0.43792 -0.17341,-0.14603 -0.380975,-0.27537 -0.622697,-0.38817 -0.236468,-0.11278 -0.528111,-0.21566 -0.87493,-0.30854 -0.346817,-0.0995 -0.735676,-0.17578 -1.16657,-0.22892 -0.399367,-0.0531 -0.764577,-0.18258 -1.095631,-0.38817 -0.3258,-0.21233 -0.593797,-0.46446 -0.80399,-0.75641 -0.204938,-0.29859 -0.36521,-0.61377 -0.480817,-0.94552 -0.110353,-0.33841 -0.16553,-0.67349 -0.16553,-1.00525 0,-0.58391 0.105101,-1.14459 0.31529,-1.68205 0.215448,-0.53745 0.5176,-1.01519 0.906458,-1.43321 0.394112,-0.42465 0.898575,-0.75973 1.513389,-1.00524 0.62007,-0.25215 1.303198,-0.37821 2.049382,-0.37821 0.30478,0 0.71203,0.0332 1.221748,0.0996 0.509718,0.0663 0.859163,0.14272 1.048338,0.22892 0.204938,0.0929 0.359956,0.23885 0.465054,0.43792 0.110353,0.19905 0.16553,0.42134 0.16553,0.66684 0,0.0531 -0.0026,0.11278 -0.0079,0.17908 -0.0473,0.46447 -0.27588,0.69672 -0.685757,0.69672 -0.131366,0 -0.278504,-0.0267 -0.441404,-0.0797 -0.01561,-0.007 -0.06305,-0.0198 -0.141891,-0.0399 -0.07356,-0.0267 -0.118233,-0.0432 -0.134012,-0.0498 -0.01561,-0.007 -0.06043,-0.0198 -0.134011,-0.0399 -0.07358,-0.0198 -0.126113,-0.0332 -0.157632,-0.0398 -0.02626,-0.007 -0.07619,-0.0165 -0.149771,-0.03 -0.07358,-0.0198 -0.136619,-0.0332 -0.189173,-0.0398 -0.0473,-0.007 -0.11298,-0.0128 -0.197057,-0.0198 -0.07881,-0.0128 -0.157631,-0.0198 -0.236465,-0.0198 -0.07358,-0.007 -0.160278,-0.009 -0.260116,-0.009 -0.09459,-0.007 -0.19443,-0.009 -0.299524,-0.009 -0.483445,0 -0.937987,0.0896 -1.363626,0.26872 -0.420387,0.17248 -0.761952,0.42467 -1.024694,0.75642 -0.257486,0.32513 -0.386229,0.69008 -0.386229,1.09484 0,0.47109 0.168157,0.86921 0.504465,1.19434 0.341563,0.32513 0.830261,0.50759 1.466095,0.54741 0.614816,0.0399 1.161316,0.15925 1.639504,0.3583 0.478191,0.19242 0.86442,0.43129 1.15869,0.7166 0.294272,0.2787 0.535993,0.61045 0.725167,0.99529 0.189174,0.37821 0.317918,0.75312 0.386229,1.12468 0.07358,0.36495 0.110354,0.74979 0.110354,1.15454 0,0.63035 -0.0867,1.22421 -0.260115,1.78158 -0.17341,0.55735 -0.41513,1.04173 -0.725166,1.45311 -0.30478,0.4114 -0.662109,0.76638 -1.071985,1.06497 -0.404621,0.29858 -0.846026,0.52419 -1.324216,0.67679 -0.478188,0.15264 -0.969515,0.22892 -1.473979,0.22892 -0.77246,0 -1.46347,-0.19574 -2.073029,-0.58722 -0.604305,-0.39149 -1.022063,-0.86921 -1.253276,-1.43322 z"
       id="text4"
       aria-label="TALES"
       sodipodi:nodetypes="ccscssscsccccscsssccccsscccccccccscsccscsscccscsccccsccscccccccccscscscsccccscscscscccsccscccssscscscccscscscccccscsccccscscccsccsccssscsccsccccsscccscsscscscscscsccccccscccssccscsccscccccccscssccccccssccssccc" />
    <path
       id="rect3"
       style="fill:#666666;stroke-width:2.42991;stroke-linecap:round;stroke-linejoin:round;stroke-dasharray:58.3176, 58.3176;stroke-dashoffset:33.5327"
       d="m 19.811303,78.598513 19.307407,-12.839979 10.519391,12.659461 2.035383,11.476174 -4.685556,11.107401 -8.947783,0.89038 8.284682,1.60404 -5.926886,13.65975 -7.49947,6.49689 7.194109,-4.291 -7.775469,16.41807 -9.725433,18.70999 -2.78623,2.87887 -3.317551,-31.69929 4.879383,0.004 -5.336795,-4.37344 -0.763863,-7.29874 3.648453,-23.561253 7.284537,3.589831 -6.942848,-5.591586 z"
       sodipodi:nodetypes="ccccccccccccccccccccc" />
    <path
       id="rect2"
       style="fill:#f9f9f9;stroke-width:2.42991;stroke-linecap:round;stroke-linejoin:round;stroke-dasharray:58.3176, 58.3176;stroke-dashoffset:33.5327"
       d="m 32.195833,89.103676 3.08932,-1.998963 2.907595,3.816214 -15.446597,63.421903 -5.057887,23.99977 -2.574551,6.52998 z"
       sodipodi:nodetypes="ccccccc" />
    <text
       xml:space="preserve"
       style="font-size:41.6406px;line-height:1.25;font-family:sans-serif;fill:#ffffff;stroke-width:0.390379"
       x="24.911949"
       y="166.34419"
       id="text3"
       transform="scale(0.94851426,1.0542804)"><tspan
         sodipodi:role="line"
         id="tspan3"
         style="font-style:normal;font-variant:normal;font-weight:normal;font-stretch:normal;font-size:41.6406px;font-family:'Comic Mono';-inkscape-font-specification:'Comic Mono';fill:#ffffff;stroke-width:0.390379"
         x="24.911949"
         y="166.34419">MAGINARY</tspan></text>
  </g>
</svg>
