<?xml version="1.0" encoding="UTF-8" standalone="no"?>
<!-- Created with Inkscape (http://www.inkscape.org/) -->

<svg
   width="180.60013mm"
   height="127.2258mm"
   viewBox="0 0 180.60013 127.2258"
   version="1.1"
   id="svg1"
   inkscape:version="1.3 (0e150ed6c4, 2023-07-21)"
   sodipodi:docname="logo-white.svg"
   inkscape:export-filename="logo-white.svg"
   inkscape:export-xdpi="96"
   inkscape:export-ydpi="96"
   xmlns:inkscape="http://www.inkscape.org/namespaces/inkscape"
   xmlns:sodipodi="http://sodipodi.sourceforge.net/DTD/sodipodi-0.dtd"
   xmlns="http://www.w3.org/2000/svg"
   xmlns:svg="http://www.w3.org/2000/svg">
  <sodipodi:namedview
     id="namedview1"
     pagecolor="#ffffff"
     bordercolor="#999999"
     borderopacity="1"
     inkscape:showpageshadow="0"
     inkscape:pageopacity="0"
     inkscape:pagecheckerboard="0"
     inkscape:deskcolor="#d1d1d1"
     inkscape:document-units="mm"
     inkscape:zoom="0.85257964"
     inkscape:cx="290.88192"
     inkscape:cy="587.04193"
     inkscape:window-width="1904"
     inkscape:window-height="1026"
     inkscape:window-x="0"
     inkscape:window-y="0"
     inkscape:window-maximized="1"
     inkscape:current-layer="layer1"
     showgrid="false" />
  <defs
     id="defs1" />
  <g
     inkscape:label="Layer 1"
     inkscape:groupmode="layer"
     id="layer1"
     transform="translate(-15.113713,-65.758534)">
    <path
       style="font-size:9.87583px;line-height:1.25;font-family:'Comic Mono';-inkscape-font-specification:'Comic Mono';fill:#ffffff;stroke-width:1.13374"
       d="m 22.217347,191.59916 c -0.02626,0.32513 -0.141891,0.5839 -0.34682,0.77632 -0.204939,0.18579 -0.433523,0.27869 -0.685754,0.27869 h -0.02366 -0.02365 c -0.231213,0 -0.428269,-0.0929 -0.591168,-0.27869 -0.162903,-0.18577 -0.244348,-0.44123 -0.244348,-0.76636 0,-0.0399 0.0026,-0.0896 0.0079,-0.14933 0.01561,-0.21898 0.02366,-0.55737 0.02366,-1.0152 0,-0.007 -0.03416,-1.76827 -0.102473,-5.28499 -0.06305,-3.5167 -0.09459,-5.28169 -0.09459,-5.29495 l 0.118233,0.15925 c -1.403039,-0.0863 -4.795314,4.68859 -5.02127,4.64213 -0.625325,-0.11938 1.639788,-5.27248 1.639788,-5.77677 v -0.0198 -0.03 c 0,-0.25876 0.06831,-0.491 0.204941,-0.69669 0.136637,-0.2057 0.328426,-0.30854 0.575402,-0.30854 0.0578,0 0.118233,0.007 0.18129,0.0198 0.635837,0.13941 2.816588,0.22559 6.54226,0.25876 0.283761,0 0.493953,0.093 0.630579,0.27868 0.141892,0.18579 0.220702,0.41471 0.236467,0.68675 0,0.27869 -0.07094,0.53415 -0.21282,0.76638 -0.141891,0.23224 -0.352075,0.34836 -0.630579,0.34836 h -0.07094 c -0.189176,-0.0198 -0.961636,-0.0564 -2.31738,-0.10947 0.02103,2.77353 0.08932,6.60541 0.204939,11.4956 v 0.009 z m 5.013104,-0.13941 c -0.0578,0.23888 -0.131366,0.43792 -0.220703,0.59718 -0.08932,0.15263 -0.183922,0.25876 -0.283762,0.31849 -0.09459,0.0597 -0.170783,0.0962 -0.228584,0.10947 -0.05255,0.0198 -0.107709,0.03 -0.165531,0.03 -0.115588,0 -0.225958,-0.03 -0.331055,-0.0896 C 25.680273,192.24621 25.52,191.88783 25.52,191.35038 c 0,-0.16586 0.02101,-0.37158 0.06305,-0.61709 0.07882,-0.4512 0.380971,-1.45975 0.906458,-3.02568 -0.178663,-0.17909 -0.267996,-0.38817 -0.267996,-0.62704 v -0.0198 -0.009 c 0,-0.19905 0.07358,-0.39147 0.220703,-0.57726 0.152397,-0.19242 0.349444,-0.34171 0.591166,-0.44788 1.313707,-3.78873 2.327891,-6.31345 3.042545,-7.57417 0.162903,-0.2853 0.312662,-0.49432 0.449288,-0.62703 0.141873,-0.13941 0.302152,-0.20901 0.480817,-0.20901 h 0.0473 c 0.02626,-0.007 0.0473,-0.009 0.06305,-0.009 0.215449,0 0.404622,0.0762 0.567522,0.22892 0.168157,0.14602 0.273251,0.37158 0.315289,0.6768 0.220702,1.63227 0.596424,3.96126 1.12716,6.98694 0.535993,3.01904 0.903832,4.75084 1.103515,5.19542 0.09985,0.22559 0.149752,0.4512 0.149752,0.67679 0,0.2455 -0.05518,0.46116 -0.16553,0.64693 -0.105082,0.18579 -0.233838,0.32182 -0.38623,0.40808 -0.105082,0.0597 -0.218071,0.0896 -0.338937,0.0896 -0.189175,0 -0.36784,-0.0863 -0.535995,-0.25876 -0.162903,-0.17247 -0.296896,-0.43462 -0.401992,-0.78629 -0.131367,-0.41803 -0.394112,-1.81475 -0.788224,-4.19018 -1.308453,0.0729 -2.477652,0.20901 -3.507596,0.40808 z m 4.098123,-6.85345 -0.685113,-4.05493 c -0.446661,0.982 -1.037829,2.70718 -1.773504,5.17549 0.951123,-0.13261 1.691413,-1.08738 2.458617,-1.12056 z m 10.6259,7.58997 c -0.746185,0.17908 -1.870719,0.30854 -3.373599,0.38816 -1.497625,0.0797 -2.580118,0.11939 -3.247483,0.11939 -0.231213,0 -0.428268,-0.0962 -0.591166,-0.28865 -0.162904,-0.18577 -0.24435,-0.44123 -0.24435,-0.76635 v -0.13941 c 0.0051,-0.093 0.06829,-0.84933 0.189171,-2.26927 0.120861,-1.41996 0.207569,-2.79014 0.260116,-4.11055 0.01561,-0.38485 0.02365,-0.91568 0.02365,-1.59248 l -0.03941,-4.28969 c 0.01047,-0.40475 0.102418,-0.7133 0.275877,-0.92563 0.178664,-0.21232 0.394114,-0.3185 0.646344,-0.3185 h 0.02365 0.02365 c 0.267996,0 0.486072,0.10287 0.654226,0.30855 0.168157,0.19905 0.252231,0.4877 0.252231,0.86591 0,0.38484 -0.0079,0.90571 -0.02365,1.5626 -0.01561,0.65026 -0.03941,1.49293 -0.07094,2.52805 -0.03154,1.03509 -0.0578,1.90763 -0.07882,2.6176 -0.01561,0.57727 -0.0578,1.37351 -0.126113,2.3887 -0.06305,1.0152 -0.09459,1.79484 -0.09459,2.33892 h 0.02365 c 0.91434,0 1.941659,-0.0696 3.081955,-0.209 1.140299,-0.14603 1.899622,-0.27868 2.27797,-0.39812 0.06831,-0.0198 0.131366,-0.03 0.189171,-0.03 0.162904,0 0.304782,0.0729 0.425642,0.21898 0.12086,0.13941 0.20494,0.29194 0.252234,0.45782 0.05255,0.16586 0.08144,0.32845 0.0867,0.4877 0,0.27204 -0.0578,0.49766 -0.17341,0.6768 -0.115606,0.17908 -0.323171,0.30521 -0.622696,0.37821 z m 8.575876,0.32843 c -0.06305,-0.007 -0.139246,-0.009 -0.228584,-0.009 -0.231212,0 -0.951124,0.0465 -2.159733,0.13941 -1.203356,0.093 -2.115067,0.13941 -2.735137,0.13941 -0.3258,0 -0.599051,-0.009 -0.819753,-0.03 -0.283762,-0.0264 -0.55964,-0.19574 -0.827636,-0.50759 -0.262742,-0.31185 -0.415132,-0.68343 -0.45717,-1.11473 -0.04204,-0.37157 -0.06305,-0.96212 -0.06305,-1.77162 0,-0.31184 0.0026,-0.88247 0.0079,-1.71189 0.01047,-0.83605 0.01561,-1.50621 0.01561,-2.01048 0,-0.96875 -0.01047,-1.8612 -0.03154,-2.67734 -0.01561,-0.44456 -0.02366,-0.8825 -0.02366,-1.31379 0,-0.41802 0.0079,-0.91234 0.02366,-1.48298 0.02101,-0.57063 0.03154,-0.86589 0.03154,-0.8858 0.01047,-0.40475 0.102419,-0.70997 0.275878,-0.91567 0.178663,-0.21233 0.391485,-0.3218 0.638461,-0.32845 h 0.03154 0.03942 c 0.267997,0 0.483443,0.11278 0.646345,0.33841 0.867046,-0.14603 1.920639,-0.21897 3.160777,-0.21897 1.140297,0 2.025735,0.0465 2.656315,0.13941 0.294272,0.0465 0.496581,0.14603 0.606931,0.29859 0.115607,0.15264 0.178663,0.35167 0.189175,0.59717 0,0.36493 -0.07094,0.63035 -0.212819,0.79623 -0.13662,0.15924 -0.304782,0.23887 -0.504466,0.23887 -0.03154,0 -0.06831,-0.004 -0.110353,-0.009 -0.662108,-0.0663 -1.387275,-0.0995 -2.175499,-0.0995 -1.287433,0 -2.417219,0.0762 -3.389364,0.22891 -0.04204,1.38677 -0.0657,2.64415 -0.07094,3.77215 0.777715,-0.0129 1.826053,-0.0663 3.145014,-0.15924 1.324218,-0.0996 2.073029,-0.14933 2.246439,-0.14933 0.514971,0 0.785596,0.30854 0.811871,0.92562 0,0.37821 -0.07882,0.65025 -0.236468,0.81614 -0.152397,0.15924 -0.34419,0.23887 -0.575403,0.23887 -0.204938,0 -1.011555,0.063 -2.419847,0.18909 -1.408294,0.11939 -1.922158,0.57228 -2.327981,0.8294 -0.336291,0.11463 -0.263855,0.32559 -0.326993,0.57433 -0.140399,0.55311 -0.266905,1.10772 -0.261765,1.45275 0.0051,0.34504 0.01561,0.69671 0.03154,1.05501 0.01561,0.3583 0.03942,0.60713 0.07094,0.74646 0.152398,0.0399 0.459796,0.0597 0.922222,0.0597 0.667362,0 1.463467,-0.0332 2.388318,-0.0996 0.930105,-0.0729 1.5239,-0.13941 1.781386,-0.19905 0.12086,-0.0332 0.236466,-0.0498 0.34682,-0.0498 0.162904,0 0.302151,0.0332 0.417756,0.0995 0.12086,0.0663 0.210195,0.15595 0.267999,0.26872 0.06305,0.11278 0.107726,0.22561 0.134011,0.33841 0.02626,0.10617 0.04204,0.21896 0.0473,0.3384 0,0.29195 -0.07358,0.55406 -0.220703,0.78628 -0.147126,0.23224 -0.365212,0.34836 -0.654227,0.34836 -0.03677,0 -0.07094,-0.004 -0.102473,-0.009 z m 1.734093,-1.5626 c -0.115607,-0.27868 -0.17341,-0.53414 -0.17341,-0.76638 0,-0.3981 0.147125,-0.69006 0.441404,-0.87585 0.220702,-0.11939 0.394112,-0.17908 0.520228,-0.17908 0.262742,0 0.509718,0.21896 0.740932,0.65688 0.178663,0.33841 0.428268,0.61378 0.748811,0.82609 0.3258,0.21234 0.696265,0.3185 1.111396,0.3185 0.310035,0 0.633207,-0.0663 0.969516,-0.19905 0.33631,-0.13941 0.651598,-0.32843 0.945869,-0.56731 0.294269,-0.23887 0.535991,-0.54409 0.725165,-0.91567 0.194428,-0.37158 0.291644,-0.76637 0.291644,-1.1844 0,-0.18578 -0.01047,-0.35498 -0.03154,-0.5076 -0.01562,-0.15263 -0.05255,-0.31849 -0.110354,-0.49763 -0.0578,-0.17909 -0.139246,-0.33841 -0.244348,-0.47775 -0.09985,-0.14603 -0.236466,-0.29196 -0.409876,-0.43792 -0.17341,-0.14603 -0.380975,-0.27537 -0.622697,-0.38817 -0.236468,-0.11278 -0.528111,-0.21566 -0.87493,-0.30854 -0.346817,-0.0995 -0.735676,-0.17578 -1.16657,-0.22892 -0.399367,-0.0531 -0.764577,-0.18258 -1.095631,-0.38817 -0.3258,-0.21233 -0.593797,-0.46446 -0.80399,-0.75641 -0.204938,-0.29859 -0.36521,-0.61377 -0.480817,-0.94552 -0.110353,-0.33841 -0.16553,-0.67349 -0.16553,-1.00525 0,-0.58391 0.105101,-1.14459 0.31529,-1.68205 0.215448,-0.53745 0.5176,-1.01519 0.906458,-1.43321 0.394112,-0.42465 0.898575,-0.75973 1.513389,-1.00524 0.62007,-0.25215 1.303198,-0.37821 2.049382,-0.37821 0.30478,0 0.71203,0.0332 1.221748,0.0996 0.509718,0.0663 0.859163,0.14272 1.048338,0.22892 0.204938,0.0929 0.359956,0.23885 0.465054,0.43792 0.110353,0.19905 0.16553,0.42134 0.16553,0.66684 0,0.0531 -0.0026,0.11278 -0.0079,0.17908 -0.0473,0.46447 -0.27588,0.69672 -0.685757,0.69672 -0.131366,0 -0.278504,-0.0267 -0.441404,-0.0797 -0.01561,-0.007 -0.06305,-0.0198 -0.141891,-0.0399 -0.07356,-0.0267 -0.118233,-0.0432 -0.134012,-0.0498 -0.01561,-0.007 -0.06043,-0.0198 -0.134011,-0.0399 -0.07358,-0.0198 -0.126113,-0.0332 -0.157632,-0.0398 -0.02626,-0.007 -0.07619,-0.0165 -0.149771,-0.03 -0.07358,-0.0198 -0.136619,-0.0332 -0.189173,-0.0398 -0.0473,-0.007 -0.11298,-0.0128 -0.197057,-0.0198 -0.07881,-0.0128 -0.157631,-0.0198 -0.236465,-0.0198 -0.07358,-0.007 -0.160278,-0.009 -0.260116,-0.009 -0.09459,-0.007 -0.19443,-0.009 -0.299524,-0.009 -0.483445,0 -0.937987,0.0896 -1.363626,0.26872 -0.420387,0.17248 -0.761952,0.42467 -1.024694,0.75642 -0.257486,0.32513 -0.386229,0.69008 -0.386229,1.09484 0,0.47109 0.168157,0.86921 0.504465,1.19434 0.341563,0.32513 0.830261,0.50759 1.466095,0.54741 0.614816,0.0399 1.161316,0.15925 1.639504,0.3583 0.478191,0.19242 0.86442,0.43129 1.15869,0.7166 0.294272,0.2787 0.535993,0.61045 0.725167,0.99529 0.189174,0.37821 0.317918,0.75312 0.386229,1.12468 0.07358,0.36495 0.110354,0.74979 0.110354,1.15454 0,0.63035 -0.0867,1.22421 -0.260115,1.78158 -0.17341,0.55735 -0.41513,1.04173 -0.725166,1.45311 -0.30478,0.4114 -0.662109,0.76638 -1.071985,1.06497 -0.404621,0.29858 -0.846026,0.52419 -1.324216,0.67679 -0.478188,0.15264 -0.969515,0.22892 -1.473979,0.22892 -0.77246,0 -1.46347,-0.19574 -2.073029,-0.58722 -0.604305,-0.39149 -1.022063,-0.86921 -1.253276,-1.43322 z"
       id="text4"
       aria-label="TALES"
       sodipodi:nodetypes="ccscssscsccccscsssccccsscccccccccscsccscsscccscsccccsccscccccccccscscscsccccscscscscccsccscccssscscscccscscscccccscsccccscscccsccsccssscsccsccccsscccscsscscscscscsccccccscccssccscsccscccccccscssccccccssccssccc" />
    <path
       id="rect3"
       style="fill:#666666;stroke-width:2.42991;stroke-linecap:round;stroke-linejoin:round;stroke-dasharray:58.3176, 58.3176;stroke-dashoffset:33.5327"
       d="m 19.811303,78.598513 19.307407,-12.839979 10.519391,12.659461 2.035383,11.476174 -4.685556,11.107401 -8.947783,0.89038 8.284682,1.60404 -5.926886,13.65975 -7.49947,6.49689 7.194109,-4.291 -7.775469,16.41807 -9.725433,18.70999 -2.78623,2.87887 -3.317551,-31.69929 4.879383,0.004 -5.336795,-4.37344 -0.763863,-7.29874 3.648453,-23.561253 7.284537,3.589831 -6.942848,-5.591586 z"
       sodipodi:nodetypes="ccccccccccccccccccccc" />
    <path
       id="rect2"
       style="fill:#f9f9f9;stroke-width:2.42991;stroke-linecap:round;stroke-linejoin:round;stroke-dasharray:58.3176, 58.3176;stroke-dashoffset:33.5327"
       d="m 32.195833,89.103676 3.08932,-1.998963 2.907595,3.816214 -15.446597,63.421903 -5.057887,23.99977 -2.574551,6.52998 z"
       sodipodi:nodetypes="ccccccc" />
    <path
       style="font-size:41.6406px;line-height:1.25;font-family:'Comic Mono';-inkscape-font-specification:'Comic Mono';fill:#ffffff;stroke-width:0.390379"
       d="m 29.12074,163.55866 v 0.24399 c 0,1.07084 -0.216878,1.93835 -0.650634,2.60254 -0.433757,0.66419 -0.962397,0.99628 -1.585921,0.99628 h -0.061 c -1.21994,-0.0542 -1.82991,-1.18603 -1.82991,-3.39549 0,-0.35243 0.03389,-0.93529 0.101662,-1.74858 0.08133,-0.82685 0.189768,-1.88414 0.325317,-3.17185 0.135549,-1.28771 0.243988,-2.41954 0.325317,-3.39549 0.02711,-0.2711 0.08133,-0.98273 0.162659,-2.1349 0.09488,-1.16572 0.169436,-2.10101 0.223656,-2.80586 0.06777,-0.71841 0.155881,-1.6808 0.26432,-2.88719 0.108439,-1.20639 0.2101,-2.21623 0.304985,-3.02952 0.108439,-0.82685 0.216878,-1.68758 0.325317,-2.5822 0.121994,-0.89462 0.243988,-1.62658 0.365982,-2.19589 0.135549,-0.56931 0.26432,-0.98273 0.386314,-1.24027 0.311762,-0.59642 0.752296,-1.04373 1.321601,-1.34194 0.58286,-0.29821 1.158942,-0.44731 1.728247,-0.44731 h 0.121994 0.121994 c 1.396153,0.0135 2.256888,0.60317 2.582205,1.76891 0.176213,0.66419 0.359204,1.55882 0.548973,2.68387 0.203323,1.1115 0.406647,2.46699 0.60997,4.06647 0.216878,1.58592 0.399869,2.98885 0.548972,4.20879 0.149104,1.20638 0.338872,2.79908 0.569305,4.77809 0.230433,1.96546 0.393092,3.32095 0.487976,4.06647 0.243988,-3.00919 0.474421,-5.49651 0.691299,-7.46197 0.243988,-2.33144 0.58286,-4.64932 1.016616,-6.95365 0.433757,-2.30433 0.806516,-4.10035 1.118278,-5.38807 0.121994,-0.44731 0.359204,-0.80651 0.711631,-1.07761 0.352427,-0.28465 0.704854,-0.46764 1.057281,-0.54897 0.365982,-0.0949 0.738741,-0.14233 1.118278,-0.14233 h 0.34565 c 0.01355,0.0135 0.142325,0.0881 0.386314,0.22366 0.243988,0.12199 0.603192,0.33209 1.077613,0.6303 0.487975,0.28465 0.962396,0.58286 1.423262,0.89462 0.08133,0.0678 0.128772,0.1491 0.142327,0.24399 0.121994,0.8404 0.447311,4.82554 0.975951,11.95541 0.528641,7.11631 0.894623,11.13533 1.097946,12.05706 0.108439,0.47443 0.162658,0.90141 0.162658,1.28094 0,1.09795 -0.413424,1.82313 -1.240271,2.17556 -0.271098,0.12199 -0.555751,0.18299 -0.853958,0.18299 -0.135549,0 -0.277875,-0.0203 -0.426979,-0.061 -0.135549,-0.0271 -0.332094,-0.10168 -0.589637,-0.22365 -0.243988,-0.12199 -0.481198,-0.33887 -0.711631,-0.65064 -0.230433,-0.32531 -0.420202,-0.73196 -0.569306,-1.21994 -0.542195,-1.74858 -1.03017,-8.892 -1.463927,-21.43027 -0.501531,2.88719 -0.840403,5.55073 -1.016616,7.99061 -0.243988,3.11762 -0.58286,6.1268 -1.016616,9.02755 -0.420201,2.90075 -0.772628,4.67644 -1.057281,5.32707 -0.352427,0.81329 -1.219939,1.21994 -2.602537,1.21994 h -0.08133 -0.08133 c -0.58286,0 -1.070836,-0.11522 -1.463927,-0.34565 -0.393092,-0.24399 -0.643857,-0.58286 -0.752296,-1.01662 -0.623525,-2.50765 -1.327378,-5.53408 -2.940409,-16.54064 -0.121993,1.36904 -0.780406,1.12874 -1.146388,6.74046 -0.06778,1.1115 -0.155881,2.27044 -0.26432,3.47683 -0.108439,1.19283 -0.196546,2.14845 -0.264321,2.86686 -0.06777,0.70485 -0.101661,1.21994 -0.101661,1.54525 0,0.0678 0.0068,0.12877 0.02033,0.18299 z m 23.117851,0.87429 c -0.149103,0.48798 -0.338872,0.89463 -0.569305,1.21994 -0.230433,0.31177 -0.474421,0.52865 -0.731964,0.65064 -0.243987,0.12199 -0.440533,0.19654 -0.589637,0.22365 -0.135549,0.0407 -0.277875,0.061 -0.426979,0.061 -0.298207,0 -0.58286,-0.061 -0.853957,-0.18299 -0.826848,-0.36598 -1.240272,-1.09794 -1.240272,-2.19589 0,-0.33887 0.05422,-0.75908 0.162658,-1.26061 0.203323,-0.92173 0.982729,-2.98207 2.338218,-6.18102 -0.460866,-0.36598 -0.691299,-0.79296 -0.691299,-1.28094 v -0.0407 -0.0203 c 0,-0.40664 0.189768,-0.79973 0.569305,-1.17927 0.393091,-0.39309 0.901399,-0.69808 1.524924,-0.91495 3.388721,-7.73984 6.004813,-12.89747 7.848277,-15.4729 0.420201,-0.58286 0.806515,-1.00984 1.158942,-1.28094 0.365982,-0.28465 0.779406,-0.42698 1.240272,-0.42698 h 0.121994 c 0.06778,-0.0135 0.121994,-0.0203 0.162659,-0.0203 0.55575,0 1.043726,0.15588 1.463927,0.46764 0.433756,0.29821 0.704854,0.75907 0.813293,1.3826 0.569305,3.3345 1.538479,8.09226 2.907522,14.27329 1.382598,6.16747 2.33144,9.7053 2.846525,10.61348 0.257543,0.46086 0.386314,0.92172 0.386314,1.38259 0,0.50153 -0.142326,0.94207 -0.426978,1.3216 -0.271098,0.37954 -0.603193,0.65742 -0.996284,0.83363 -0.271098,0.12199 -0.562528,0.18299 -0.87429,0.18299 -0.487976,0 -0.948842,-0.17621 -1.382598,-0.52864 -0.420201,-0.35243 -0.765851,-0.88784 -1.036949,-1.60625 -0.338872,-0.85396 -1.016616,-3.70726 -2.033232,-8.55991 -3.375165,0.1491 -6.391127,0.42697 -9.047884,0.83362 z m 10.877793,-12.21972 -2.073897,-10.0645 c -1.152165,2.00612 -1.284283,3.02423 -3.181967,8.06665 2.453434,-0.2711 3.276851,2.06562 5.255864,1.99785 z m 28.668575,3.9038 c -0.06777,0.58286 -0.243987,1.26061 -0.52864,2.03324 -0.284653,0.77263 -0.657412,1.5927 -1.118278,2.46021 -0.460866,0.86751 -1.030171,1.71469 -1.707915,2.54154 -0.664189,0.82685 -1.389376,1.57914 -2.175559,2.25689 -0.786183,0.66419 -1.680805,1.1996 -2.683866,1.60625 -1.003061,0.4202 -2.026455,0.6303 -3.070181,0.6303 h -0.04066 -0.061 c -1.179275,0 -2.290775,-0.19655 -3.334501,-0.58964 -1.043726,-0.39309 -1.945126,-0.91495 -2.704199,-1.56559 -0.745519,-0.66419 -1.396153,-1.42326 -1.951903,-2.27722 -0.542195,-0.86751 -0.955619,-1.77568 -1.240272,-2.72453 -0.271097,-0.96239 -0.406646,-1.93157 -0.406646,-2.90752 0,-2.01968 0.210101,-3.99191 0.630302,-5.9167 0.420201,-1.92479 0.989506,-3.65982 1.707915,-5.20508 0.718409,-1.54525 1.558811,-2.96852 2.521208,-4.26979 0.962397,-1.30127 1.979013,-2.38566 3.049849,-3.25317 1.084391,-0.86751 2.202668,-1.53848 3.354833,-2.0129 1.152165,-0.48797 2.277221,-0.73196 3.375166,-0.73196 1.16572,0 2.494098,0.27787 3.985135,0.83362 1.491037,0.5422 2.466989,1.03695 2.927855,1.48426 0.460866,0.46087 0.691299,1.02339 0.691299,1.68758 0,0.33887 -0.061,0.67775 -0.182991,1.01662 -0.108439,0.32532 -0.332095,0.59642 -0.670967,0.81329 -0.338872,0.20333 -0.698076,0.30499 -1.077613,0.30499 -0.257543,0 -0.494753,-0.0407 -0.711631,-0.122 -0.189769,-0.0678 -0.58286,-0.27787 -1.179275,-0.6303 -0.596415,-0.36598 -1.206384,-0.68452 -1.829909,-0.95562 -0.623525,-0.27109 -1.172497,-0.40664 -1.646918,-0.40664 -0.840403,0 -1.735025,0.27787 -2.683867,0.83362 -0.948842,0.55575 -1.863797,1.34194 -2.744864,2.35855 -0.867512,1.01662 -1.660473,2.17556 -2.378882,3.47683 -0.704853,1.30127 -1.274158,2.77197 -1.707915,4.41211 -0.420201,1.64014 -0.630302,3.28706 -0.630302,4.94076 0,1.16572 0.237211,2.29077 0.711632,3.37516 0.474421,1.07084 1.125055,1.94513 1.951903,2.62287 0.826847,0.67775 1.714692,1.01662 2.663534,1.01662 0.731963,0 1.484259,-0.2711 2.256888,-0.81329 0.772628,-0.55575 1.463927,-1.26061 2.073897,-2.11457 0.623525,-0.85395 1.172497,-1.7418 1.646918,-2.66353 0.474421,-0.92173 0.84718,-1.80958 1.118278,-2.66353 -1.735025,0.0949 -3.361611,0.25076 -4.879758,0.46764 -1.504592,0.21688 -2.548318,0.47442 -3.131178,0.77263 -0.257543,0.13555 -0.614716,3.46132 -0.885814,3.46132 -0.447311,0 -1.741125,0.22973 -2.144796,-2.69571 -0.19572,-1.4 0.536512,-1.70768 0.468738,-2.12788 -0.02711,-0.13555 -0.04066,-0.26432 -0.04066,-0.38631 0,-0.98951 0.60997,-1.76214 1.829909,-2.31789 0.745519,-0.36598 2.195891,-0.64385 4.351117,-0.83362 2.168781,-0.20333 4.113907,-0.30499 5.835377,-0.30499 0.501531,0 0.9014,0.007 1.199607,0.0203 0.704854,0.0407 1.233495,0.17621 1.585922,0.40664 0.352427,0.23043 0.576082,0.62353 0.670966,1.17928 0.02711,0.12199 0.04066,0.27787 0.04066,0.46764 0,0.82685 -0.31854,1.3826 -0.955619,1.66725 z m 21.104951,10.67447 h 0.0407 c -0.12199,0 -1.59947,0.007 -4.43244,0.0203 -2.81941,0.0271 -5.61172,0.0475 -8.37692,0.061 l -4.147793,0.0407 c -0.799738,0 -1.409708,-0.16266 -1.829909,-0.48798 -0.420201,-0.31176 -0.630302,-0.73874 -0.630302,-1.28093 v -0.061 -0.061 c 0,-0.52864 0.189768,-0.98273 0.569305,-1.36226 0.393092,-0.37954 0.989507,-0.58964 1.789245,-0.63031 1.084391,-0.0542 3.036292,-0.10842 5.855704,-0.16265 0.17621,-2.94141 0.26432,-6.20814 0.26432,-9.80018 0,-1.85702 -0.0203,-3.3955 -0.061,-4.61544 -0.0542,-1.42327 -0.0813,-2.4941 -0.0813,-3.21251 0,-0.82685 0.0474,-2.25011 0.14232,-4.26979 -1.07083,-0.0135 -2.087448,-0.0203 -3.049844,-0.0203 -1.057281,0 -1.938348,0.0136 -2.643202,0.0407 h -0.142326 c -0.745519,0 -1.321601,-0.18977 -1.728247,-0.56931 -0.406647,-0.37953 -0.60997,-0.84718 -0.60997,-1.40293 v -0.0407 -0.061 c 0,-0.55575 0.203323,-1.03017 0.60997,-1.42326 0.420201,-0.40665 1.016616,-0.61675 1.789244,-0.63031 2.480543,-0.0813 4.703545,-0.12199 6.669005,-0.12199 3.72759,0 7.01465,0.14233 9.86117,0.42698 0.44731,0.0407 0.82685,0.13555 1.13861,0.28465 0.31177,0.14911 0.53542,0.3321 0.67097,0.54897 0.14911,0.21688 0.25077,0.41343 0.30499,0.58964 0.0542,0.17621 0.0881,0.35243 0.10166,0.52864 0,0.33887 -0.061,0.67775 -0.18299,1.01662 -0.12199,0.32531 -0.33887,0.62352 -0.65064,0.89462 -0.31176,0.2711 -0.6913,0.40665 -1.13861,0.40665 -0.12199,0 -0.26432,-0.0136 -0.42698,-0.0407 -0.77263,-0.12199 -2.67709,-0.25754 -5.71338,-0.40664 -0.0678,2.95496 -0.10166,4.8662 -0.10166,5.73371 0,1.30127 0.0203,2.63642 0.061,4.00547 0,0.0407 -0.0746,4.03258 -0.22366,11.97574 1.13861,0 2.43988,0.007 3.90381,0.0203 1.47748,0.0135 2.29077,0.0203 2.43987,0.0203 1.34193,0 2.04679,0.6303 2.11457,1.89091 0,0.25754 -0.0271,0.5083 -0.0813,0.75229 -0.0542,0.23043 -0.14231,0.46087 -0.26432,0.6913 -0.12199,0.21688 -0.30499,0.39309 -0.54898,0.52864 -0.24399,0.13555 -0.52864,0.20333 -0.85395,0.20333 -0.12199,0 -0.25754,-0.007 -0.40665,-0.0203 z m 21.32861,0.77263 h -0.061 c -0.0271,0.0135 -0.0542,0.0203 -0.0813,0.0203 -0.55575,0 -1.02339,-0.18299 -1.40293,-0.54897 -0.36598,-0.36598 -0.63708,-0.8404 -0.81329,-1.42326 -0.24399,-0.52864 -0.8404,-1.62659 -1.78925,-3.29384 -0.93529,-1.68081 -1.92479,-3.42939 -2.96852,-5.24574 -1.04373,-1.82991 -2.17556,-3.91736 -3.39549,-6.26235 -1.20639,-2.35855 -2.18234,-4.42567 -2.92786,-6.20136 0.0678,1.40971 0.10166,2.98207 0.10166,4.7171 0,2.15523 -0.0542,4.85942 -0.16266,8.11259 -0.0949,3.25317 -0.14232,5.16441 -0.14232,5.73372 0,0.31176 0.007,0.5693 0.0203,0.77263 v 0.24399 c 0,0.88107 -0.21688,1.54525 -0.65063,1.99256 -0.42021,0.43376 -0.93529,0.65064 -1.54526,0.65064 h -0.10166 c -0.37954,-0.0135 -0.69808,-0.10164 -0.95562,-0.26432 -0.24399,-0.16266 -0.42698,-0.39309 -0.54897,-0.6913 -0.122,-0.31176 -0.21011,-0.62352 -0.26432,-0.93529 -0.0407,-0.32531 -0.061,-0.69807 -0.061,-1.11828 0,-0.40665 0.0542,-3.00241 0.16266,-7.78728 0.10844,-4.79843 0.16266,-8.51924 0.16266,-11.16244 0,-2.15523 -0.0339,-3.78181 -0.10167,-4.87976 -0.0135,-0.0949 -0.0203,-0.18299 -0.0203,-0.26432 0,-0.93529 0.26432,-1.61981 0.79296,-2.05356 0.5422,-0.44731 1.20639,-0.67097 1.99257,-0.67097 0.0678,0 0.15588,0.007 0.26432,0.0203 h 0.24399 c 1.35549,0.0271 2.20944,0.60999 2.56187,1.74858 0.54219,1.69436 1.99934,4.79165 4.37145,9.29187 2.38566,4.48667 4.57477,8.39725 6.56734,11.73175 0.0407,-1.87057 0.061,-4.03258 0.061,-6.48601 0,-6.98076 -0.13555,-11.51487 -0.40665,-13.60232 -0.0135,-0.13555 -0.0203,-0.26432 -0.0203,-0.38632 0,-0.67774 0.19655,-1.23349 0.58964,-1.66725 0.40665,-0.44731 0.90818,-0.67096 1.50459,-0.67096 0.36598,0 0.67096,0.0407 0.91495,0.12199 0.25755,0.0813 0.46087,0.183 0.60997,0.30499 0.14911,0.10843 0.2711,0.29142 0.36598,0.54897 0.10844,0.25754 0.18299,0.48797 0.22366,0.6913 0.0542,0.20332 0.10842,0.50153 0.16266,0.89462 0.0813,0.59641 0.12199,3.3955 0.12199,8.39725 0,11.02012 -0.25754,17.1537 -0.77263,18.40075 -0.36598,0.81329 -1.23349,1.21994 -2.60253,1.21994 z m 8.78356,-3.13118 c -0.14911,0.48798 -0.33888,0.89463 -0.56931,1.21994 -0.23043,0.31177 -0.47441,0.52865 -0.73196,0.65064 -0.24399,0.12199 -0.44053,0.19654 -0.58964,0.22365 -0.13555,0.0407 -0.27787,0.061 -0.42698,0.061 -0.29821,0 -0.58286,-0.061 -0.85395,-0.18299 -0.82685,-0.36598 -1.24027,-1.09794 -1.24027,-2.19589 0,-0.33887 0.0542,-0.75908 0.16265,-1.26061 0.20333,-0.92173 0.98273,-2.98207 2.33822,-6.18102 -0.46087,-0.36598 -0.6913,-0.79296 -0.6913,-1.28094 v -0.0407 -0.0203 c 0,-0.40664 0.18977,-0.79973 0.56931,-1.17927 0.39309,-0.39309 0.90139,-0.69808 1.52492,-0.91495 3.38872,-7.73984 6.00481,-12.89747 7.84828,-15.4729 0.4202,-0.58286 0.80651,-1.00984 1.15894,-1.28094 0.36598,-0.28465 0.7794,-0.42698 1.24027,-0.42698 h 0.122 c 0.0678,-0.0135 0.12199,-0.0203 0.16266,-0.0203 0.55575,0 1.04372,0.15588 1.46392,0.46764 0.43376,0.29821 0.70486,0.75907 0.8133,1.3826 0.5693,3.3345 1.53847,8.09226 2.90752,14.27329 1.38259,6.16747 2.33143,9.7053 2.84652,10.61348 0.25755,0.46086 0.38632,0.92172 0.38632,1.38259 0,0.50153 -0.14233,0.94207 -0.42698,1.3216 -0.2711,0.37954 -0.6032,0.65742 -0.99629,0.83363 -0.27109,0.12199 -0.56252,0.18299 -0.87429,0.18299 -0.48797,0 -0.94884,-0.17621 -1.38259,-0.52864 -0.42021,-0.35243 -0.76586,-0.88784 -1.03695,-1.60625 -0.33887,-0.85396 -1.01662,-3.70726 -2.03323,-8.55991 -3.37517,0.1491 -6.39113,0.42697 -9.04789,0.83362 z m 10.97578,-14.4236 -2.17188,-7.86062 c -1.15217,2.00612 -2.67709,5.53039 -4.57478,10.57281 2.45343,-0.2711 4.76765,-2.64442 6.74666,-2.71219 z m 13.32135,14.97258 v 0.0813 c 0,0.65063 -0.26432,1.15894 -0.79297,1.52492 -0.52864,0.37954 -1.11828,0.56931 -1.76891,0.56931 -0.0542,0 -0.0949,-0.007 -0.12199,-0.0203 -0.62353,-0.0271 -1.15894,-0.2169 -1.60625,-0.5693 -0.43376,-0.33887 -0.65064,-0.8404 -0.65064,-1.50459 0,-0.0678 0.007,-0.15589 0.0203,-0.26432 0.13555,-1.74858 0.20333,-3.53105 0.20333,-5.34741 0,-1.36904 -0.0203,-3.22606 -0.061,-5.57105 -0.0135,-0.18977 -0.0203,-0.36598 -0.0203,-0.52864 0,-0.47442 0.0203,-1.28771 0.061,-2.43988 0.0542,-1.15217 0.0813,-2.14167 0.0813,-2.96852 0,-0.70485 -0.0136,-1.43004 -0.0407,-2.17556 -0.0271,-0.92173 -0.10169,-2.17556 -0.22366,-3.76148 -0.12199,-1.58592 -0.18299,-2.54154 -0.18299,-2.86686 v -0.20332 -0.14233 c 0,-0.55575 0.2101,-1.03694 0.6303,-1.44359 0.42021,-0.50153 1.00307,-0.7523 1.74858,-0.7523 0.56931,0 1.03695,0.11522 1.40293,0.34565 2.30433,0.12199 4.41212,0.42698 6.32336,0.91496 1.91123,0.48797 3.49715,1.09116 4.75776,1.80957 1.26061,0.71841 2.32467,1.53171 3.19218,2.43988 0.88107,0.90818 1.51137,1.83669 1.8909,2.78553 0.37954,0.93529 0.56931,1.88413 0.56931,2.84653 0,0.94884 -0.17621,1.78924 -0.52864,2.5212 -0.33887,0.73197 -0.79974,1.34194 -1.3826,1.82991 -0.58286,0.47443 -1.33516,0.88785 -2.25689,1.24028 -0.92173,0.33887 -1.88413,0.60319 -2.88719,0.79296 -0.98951,0.17621 -2.14167,0.32532 -3.45649,0.44731 2.60253,1.42326 4.89331,3.02951 6.87232,4.81876 1.97901,1.77569 3.28706,3.30739 3.92414,4.5951 0.12199,0.23043 0.18299,0.50153 0.18299,0.8133 0,0.37953 -0.10166,0.73874 -0.30498,1.07761 -0.18977,0.33887 -0.44054,0.60997 -0.7523,0.81329 -0.39309,0.25755 -0.78619,0.38632 -1.17928,0.38632 -0.74551,0 -1.41648,-0.39309 -2.0129,-1.17928 -0.4202,-0.54219 -1.02339,-1.21994 -1.80957,-2.03323 -0.77263,-0.81329 -1.70791,-1.71469 -2.80586,-2.7042 -1.08439,-1.00306 -2.33144,-1.99257 -3.74115,-2.96852 -1.39615,-0.98951 -2.75842,-1.8028 -4.0868,-2.43988 0.0949,1.47749 0.24399,3.23962 0.44731,5.28641 0.20333,2.04679 0.32532,3.36161 0.36599,3.94447 z m -0.30499,-19.35638 c 0,0.58286 0.0469,1.80486 -0.23777,4.86827 -0.11915,0.29841 0.0338,0.18434 0.76641,0.64183 0.21157,0.13213 0.6913,-0.0136 1.30127,-0.0407 1.13861,-0.0542 2.11456,-0.1152 2.92785,-0.18299 0.82685,-0.0813 1.60626,-0.17621 2.33822,-0.28465 0.74552,-0.12199 1.36227,-0.25754 1.85024,-0.40665 0.48798,-0.16266 0.90818,-0.35243 1.26061,-0.5693 0.36598,-0.23043 0.6303,-0.49476 0.79296,-0.79297 0.16266,-0.29821 0.24399,-0.64385 0.24399,-1.03694 0,-0.67775 -0.25077,-1.34194 -0.7523,-1.99257 -0.50153,-0.66419 -1.15217,-1.25383 -1.9519,-1.76891 -0.78619,-0.51509 -1.69436,-0.99629 -2.72453,-1.4436 -1.01662,-0.44731 -2.02646,-0.82007 -3.02952,-1.11828 -1.00306,-0.31176 -1.98579,-0.55575 -2.94819,-0.73196 0.0407,1.78925 0.0949,3.40905 0.16266,4.85942 z m 25.78139,21.02363 c -0.20333,0.59641 -0.49476,1.07761 -0.87429,1.44359 -0.37954,0.36599 -0.77263,0.54898 -1.17928,0.54898 -0.46087,0 -0.89462,-0.37276 -1.30127,-1.11828 -0.6913,-0.52864 -1.03695,-1.1725 -1.03695,-1.93157 0,-0.40665 0.10844,-0.81329 0.32532,-1.21994 l 4.29012,-8.29559 c -0.52864,-0.97595 -1.24027,-2.223 -2.13489,-3.74115 -0.88107,-1.51815 -1.47748,-2.54832 -1.78925,-3.09051 -0.37953,-0.6913 -0.93528,-1.62659 -1.66725,-2.80586 -0.71841,-1.19283 -1.31482,-2.22301 -1.78924,-3.09052 -0.47442,-0.88107 -0.87429,-1.75535 -1.19961,-2.62286 -0.20332,-0.5422 -0.30498,-1.05051 -0.30498,-1.52493 0,-0.58286 0.13555,-1.0505 0.40664,-1.40293 0.2711,-0.35243 0.58964,-0.60997 0.95562,-0.77263 0.33887,-0.17621 0.70486,-0.26432 1.09795,-0.26432 0.54219,0 1.03695,0.18977 1.48426,0.56931 0.44731,0.37953 0.79296,0.94884 1.03695,1.70791 0.13555,0.46087 0.28465,0.90818 0.44731,1.34194 0.16265,0.43375 0.34564,0.88106 0.54897,1.34193 0.21688,0.46087 0.39987,0.85396 0.54897,1.17927 0.14911,0.31177 0.35921,0.71841 0.6303,1.21994 0.28465,0.48798 0.4812,0.84041 0.58964,1.05728 0.12199,0.21688 0.34565,0.6032 0.67097,1.15895 0.32531,0.55575 0.53541,0.90817 0.6303,1.05728 0.82685,1.43681 1.75478,2.0599 2.39186,3.45605 l 0.46764,-1.05728 c 0.39309,-0.85395 0.87487,-1.45671 1.83727,-3.39506 0.97595,-1.93835 1.6808,-3.44971 2.11456,-4.5341 0.13555,-0.33887 0.37276,-0.84718 0.71163,-1.52493 0.35243,-0.6913 0.60319,-1.21994 0.7523,-1.58592 0.28465,-0.73197 0.64385,-1.28094 1.07761,-1.64692 0.44731,-0.36598 0.93529,-0.54897 1.46393,-0.54897 0.35243,0 0.66419,0.0678 0.93528,0.20332 0.37954,0.17621 0.71164,0.46764 0.99629,0.87429 0.28465,0.39309 0.42698,0.86751 0.42698,1.42326 0,0.46087 -0.10844,0.94884 -0.32532,1.46393 -0.16266,0.35243 -0.45409,0.91495 -0.87429,1.68758 -0.40665,0.77263 -0.71163,1.40294 -0.91496,1.89091 -0.25754,0.59641 -0.7794,1.60625 -1.56558,3.02952 -0.78619,1.40971 -1.38938,2.5822 -1.80958,3.51749 -0.46087,0.98951 -1.03017,2.16878 -1.70792,3.53782 -0.67774,1.36905 -1.22671,2.46022 -1.64691,3.27351 -0.40665,0.81329 -1.19961,2.36533 -2.37889,4.6561 -1.17927,2.29077 -1.95868,3.80214 -2.33821,4.53411 z"
       id="text3"
       transform="scale(0.94851426,1.0542804)"
       aria-label="MAGINARY"
       sodipodi:nodetypes="cssscscscccscccccscccccccccscccscccccccscsccccccccscsccccccsscccccscsccscsscccscsccccsccsccccccccccsscccscsscccssssccsccsccsccssscccscssccscccsccsccscscsccccccccscscccscscscssscsccscscsccssccscccscccssccccsccccccscscscsccccscscscscccccscscscccccscccccccscsccscsscccscsccccsccsccccccccccscsccscscscscsscscscssccscccccccsccscccccsccccscccccsscccccccsscsccccccssscsscsccccsccccscccsccscccccscsc" />
  </g>
</svg>
